<svg id="Layer_1" data-name="Layer 1" xmlns="http://www.w3.org/2000/svg" xmlns:xlink="http://www.w3.org/1999/xlink" viewBox="0 0 124.8 123.36"><defs><style>.cls-1,.cls-2{fill:none;}.cls-1{clip-rule:evenodd;}.cls-3{clip-path:url(#clip-path);}.cls-4{clip-path:url(#clip-path-2);}.cls-5{fill:#fff;}</style><clipPath id="clip-path" transform="translate(0.69 0.51)"><path class="cls-1" d="M27.75,0H95.13a27.83,27.83,0,0,1,27.75,27.75V94.57a27.83,27.83,0,0,1-27.75,27.74H27.75A27.83,27.83,0,0,1,0,94.57V27.75A27.83,27.83,0,0,1,27.75,0Z"/></clipPath><clipPath id="clip-path-2" transform="translate(0.69 0.51)"><rect class="cls-2" width="122.88" height="122.31"/></clipPath></defs><g class="cls-3"><path class="cls-1" d="M27.75,0H95.13a27.83,27.83,0,0,1,27.75,27.75V94.57a27.83,27.83,0,0,1-27.75,27.74H27.75A27.83,27.83,0,0,1,0,94.57V27.75A27.83,27.83,0,0,1,27.75,0Z"/><g class="cls-4"></g></g><path class="cls-5" d="M85.36,78.92l2.72-17.76H71V49.63c0-4.86,2.38-9.59,10-9.59H88.8V24.92a94.45,94.45,0,0,0-13.75-1.2c-14,0-23.21,8.5-23.21,23.9V61.16H36.24V78.92h15.6v43.57H71V78.92Z" transform="translate(0.69 0.51)"/></svg>