<svg xmlns="http://www.w3.org/2000/svg" xmlns:xlink="http://www.w3.org/1999/xlink" viewBox="0 0 357.6 117.18"><defs><style>.cls-1{isolation:isolate;}.cls-2{mix-blend-mode:color-burn;}.cls-3{stroke:#000;stroke-miterlimit:10;stroke-width:0.75px;}.cls-4{fill:url(#linear-gradient);}.cls-5{fill:#fff;}</style><linearGradient id="linear-gradient" x1="180.73" y1="162.01" x2="537.35" y2="162.01" gradientUnits="userSpaceOnUse"><stop offset="0" stop-color="#fff"/><stop offset="0.06" stop-color="#93278f"/><stop offset="0.43" stop-color="#fff"/><stop offset="0.51" stop-color="#cccbcb"/><stop offset="0.6" stop-color="#fff"/><stop offset="0.61" stop-color="#fff"/><stop offset="0.79" stop-color="#fff"/><stop offset="0.85" stop-color="#fff"/><stop offset="0.88" stop-color="#fff"/><stop offset="0.88" stop-color="#fbfbfb"/><stop offset="1" stop-color="#f8f8f8"/><stop offset="1"/><stop offset="1" stop-color="#c0bfbf"/><stop offset="1" stop-color="#afaeae"/><stop offset="1" stop-color="#b5b4b4"/></linearGradient></defs><title>logo10</title><g class="cls-1"><g id="Layer_1" data-name="Layer 1"><g class="cls-2"><path class="cls-3" d="M193.83,139.64h12L208.69,159l.45,7.16h.4l4.12-7L228,139.64h11.94l-13,47.69h-9.64l6.35-22.85c1.15-4.19,4.47-12.3,6.2-16.65h-.4c-.7,1-5.91,9.08-7.18,10.79l-11.28,15.84h-7.3l-2.53-15.18c-.19-1-1-10.39-1.22-11.45h-.4c-.71,5.08-1.74,12.27-2.69,15.63l-6.69,23.87h-9.37Z" transform="translate(-180.24 -135.45)"/><path class="cls-3" d="M244.19,172.38c0-12.73,13.54-21.75,28.52-21.75,13.22,0,21.21,6.37,21.21,15.83,0,12.73-13.55,21.75-28.46,21.75C252.18,188.21,244.19,181.84,244.19,172.38ZM283,166.8c0-6.05-4.21-9.69-11.11-9.69-8.75,0-16.79,6.43-16.79,14.93,0,6.05,4.22,9.69,11.12,9.69C275,181.73,283,175.3,283,166.8Z" transform="translate(-180.24 -135.45)"/><path class="cls-3" d="M315.36,177.67a15.63,15.63,0,0,1,.8-4.68l4.3-15.3H306.87l1.58-5.79,14.2-.4,4.66-11.22h8.84l-3.21,11.22h22.54l-1.71,6.19H331.1l-4.36,15.18a9.3,9.3,0,0,0-.47,3c0,4.1,3.22,5.87,8.07,5.87a30.36,30.36,0,0,0,11.83-2.58l3.35,5.56c-4.32,2-11,3.5-18.29,3.5C320.19,188.21,315.36,184,315.36,177.67Z" transform="translate(-180.24 -135.45)"/><path class="cls-3" d="M364.52,172.38c0-12.73,13.55-21.75,28.52-21.75,13.22,0,21.21,6.37,21.21,15.83,0,12.73-13.54,21.75-28.46,21.75C372.51,188.21,364.52,181.84,364.52,172.38Zm38.81-5.58c0-6.05-4.21-9.69-11.11-9.69-8.74,0-16.78,6.43-16.78,14.93,0,6.05,4.21,9.69,11.11,9.69C395.3,181.73,403.33,175.3,403.33,166.8Z" transform="translate(-180.24 -135.45)"/><path class="cls-3" d="M439.15,177.76a12.68,12.68,0,0,1,.74-4.21L449.26,142H434.11l1.78-6.18h25.79l-11.29,38.45a9.75,9.75,0,0,0-.47,2.95c0,3.16,2.72,4.51,6.55,4.51a24.43,24.43,0,0,0,8.9-1.74l2.38,5.89a43.23,43.23,0,0,1-14.46,2.33C445.07,188.21,439.15,184.52,439.15,177.76Z" transform="translate(-180.24 -135.45)"/><path class="cls-3" d="M485.17,174.43c0-13,12.26-23.8,26.73-23.8,6.74,0,11.73,2,14.26,5h.4l2.08-4.16h8.71l-9.9,35.83h-8.79l.45-5.18h-.4a29.07,29.07,0,0,1-17.08,6.06C491.64,188.21,485.17,183.33,485.17,174.43Zm34.74,1.08,4.07-14.1c-2.61-3-6.71-4.3-10.34-4.3-9.55,0-17.35,7.39-17.35,16.23,0,5.78,3.6,8.39,9.11,8.39C509.94,181.73,515.29,179.71,519.91,175.51Z" transform="translate(-180.24 -135.45)"/><path class="cls-4" d="M193.83,139.64h12L208.69,159l.45,7.16h.4l4.12-7L228,139.64h11.94l-13,47.69h-9.64l6.35-22.85c1.15-4.19,4.47-12.3,6.2-16.65h-.4c-.7,1-5.91,9.08-7.18,10.79l-11.28,15.84h-7.3l-2.53-15.18c-.19-1-1-10.39-1.22-11.45h-.4c-.71,5.08-1.74,12.27-2.69,15.63l-6.69,23.87h-9.37Z" transform="translate(-180.24 -135.45)"/><path class="cls-4" d="M244.19,172.38c0-12.73,13.54-21.75,28.52-21.75,13.22,0,21.21,6.37,21.21,15.83,0,12.73-13.55,21.75-28.46,21.75C252.18,188.21,244.19,181.84,244.19,172.38ZM283,166.8c0-6.05-4.21-9.69-11.11-9.69-8.75,0-16.79,6.43-16.79,14.93,0,6.05,4.22,9.69,11.12,9.69C275,181.73,283,175.3,283,166.8Z" transform="translate(-180.24 -135.45)"/><path class="cls-4" d="M315.36,177.67a15.63,15.63,0,0,1,.8-4.68l4.3-15.3H306.87l1.58-5.79,14.2-.4,4.66-11.22h8.84l-3.21,11.22h22.54l-1.71,6.19H331.1l-4.36,15.18a9.3,9.3,0,0,0-.47,3c0,4.1,3.22,5.87,8.07,5.87a30.36,30.36,0,0,0,11.83-2.58l3.35,5.56c-4.32,2-11,3.5-18.29,3.5C320.19,188.21,315.36,184,315.36,177.67Z" transform="translate(-180.24 -135.45)"/><path class="cls-4" d="M364.52,172.38c0-12.73,13.55-21.75,28.52-21.75,13.22,0,21.21,6.37,21.21,15.83,0,12.73-13.54,21.75-28.46,21.75C372.51,188.21,364.52,181.84,364.52,172.38Zm38.81-5.58c0-6.05-4.21-9.69-11.11-9.69-8.74,0-16.78,6.43-16.78,14.93,0,6.05,4.21,9.69,11.11,9.69C395.3,181.73,403.33,175.3,403.33,166.8Z" transform="translate(-180.24 -135.45)"/><path class="cls-4" d="M439.15,177.76a12.68,12.68,0,0,1,.74-4.21L449.26,142H434.11l1.78-6.18h25.79l-11.29,38.45a9.75,9.75,0,0,0-.47,2.95c0,3.16,2.72,4.51,6.55,4.51a24.43,24.43,0,0,0,8.9-1.74l2.38,5.89a43.23,43.23,0,0,1-14.46,2.33C445.07,188.21,439.15,184.52,439.15,177.76Z" transform="translate(-180.24 -135.45)"/><path class="cls-4" d="M485.17,174.43c0-13,12.26-23.8,26.73-23.8,6.74,0,11.73,2,14.26,5h.4l2.08-4.16h8.71l-9.9,35.83h-8.79l.45-5.18h-.4a29.07,29.07,0,0,1-17.08,6.06C491.64,188.21,485.17,183.33,485.17,174.43Zm34.74,1.08,4.07-14.1c-2.61-3-6.71-4.3-10.34-4.3-9.55,0-17.35,7.39-17.35,16.23,0,5.78,3.6,8.39,9.11,8.39C509.94,181.73,515.29,179.71,519.91,175.51Z" transform="translate(-180.24 -135.45)"/></g><path d="M250.1,191.72l4.47,2.65-8.17,19c-1.11,2.53-1.73,4-3.23,6.88l.14.08c2.22-2.44,3.37-3.61,5.35-5.56l9.24-8.64,3.81,2.26-3.24,12.19c-.7,2.71-1.23,4.25-2.31,7.37l.19.11c1.84-2.67,2.75-4,4.41-6.12l12.67-16.39,4.28,2.54L256.47,233.5l-5-2.93,3.65-13.11a55.56,55.56,0,0,1,1.85-5.73l-.14-.09c-1.35,1.52-2.6,3-4.09,4.41l-9.75,9.5-4.85-2.88Z" transform="translate(-180.24 -135.45)"/><path d="M273.17,227.94c2.47-7.47,10.16-10,17-7.71,7.36,2.43,10.25,8.15,8.12,14.63a16.24,16.24,0,0,1-1,2.29L275.69,230l1-3,19,6.28-1.46.72c1.79-5.43-.32-9.12-5-10.66a8.94,8.94,0,0,0-11.77,6c-2,6,1.35,10.41,7,12.28a15.9,15.9,0,0,0,8.5.39l.74,3.07a19.83,19.83,0,0,1-10.79-.52C275.28,242.05,270.65,235.6,273.17,227.94Z" transform="translate(-180.24 -135.45)"/><path d="M310.84,248.13l-.17,0-.8,2.61-3.62-.5,4.81-35.11,4.55.62-1.31,9.57-.85,4.6.16,0a13.92,13.92,0,0,1,9.44-2.43c7.18,1,10.42,6.3,9.4,13.7-1.12,8.19-7.48,12.19-13.78,11.32A14,14,0,0,1,310.84,248.13Zm17-7.53c.72-5.28-1-9.08-6.31-9.81-2.36-.32-5.25.39-8.27,2.49l-1.64,11.93a12,12,0,0,0,6.8,3.75C323,249.59,327,246.52,327.79,240.6Z" transform="translate(-180.24 -135.45)"/><path d="M372.62,219.85l8.78-1.79c10.68-2.17,17.65,2.36,19.71,12.5s-2.52,17.32-13,19.45l-9,1.83Zm14.28,26.91c8.08-1.65,11.14-7.14,9.49-15.24s-6.55-11.67-14.63-10l-3.91.79L383,247.55Z" transform="translate(-180.24 -135.45)"/><path d="M409.71,232.41c-3-7.27,1.19-14.18,7.84-16.94,7.16-3,13.09-.51,15.69,5.79a13.74,13.74,0,0,1,.75,2.38l-21,8.71-1.22-2.95,18.51-7.66-.64,1.5c-2.19-5.29-6.19-6.7-10.74-4.82a9,9,0,0,0-5,12.25c2.4,5.8,7.81,7,13.33,4.72a15.84,15.84,0,0,0,6.69-5.25l2.57,1.84a19.89,19.89,0,0,1-8.51,6.65C420.51,241.72,412.79,239.86,409.71,232.41Z" transform="translate(-180.24 -135.45)"/><path d="M434.1,208.84l3.8-2.77,13.07,7.4q3.43,2,6.64,4l.18-.13c-.62-2.44-1.31-4.9-1.86-7.52l-3.05-14.71,3.57-2.61,5.22,26.13-4.15,3Z" transform="translate(-180.24 -135.45)"/><path class="cls-5" d="M250.1,191.72l4.47,2.65-8.17,19c-1.11,2.53-1.73,4-3.23,6.88l.14.08c2.22-2.44,3.37-3.61,5.35-5.56l9.24-8.64,3.81,2.26-3.24,12.19c-.7,2.71-1.23,4.25-2.31,7.37l.19.11c1.84-2.67,2.75-4,4.41-6.12l12.67-16.39,4.28,2.54L256.47,233.5l-5-2.93,3.65-13.11a55.56,55.56,0,0,1,1.85-5.73l-.14-.09c-1.35,1.52-2.6,3-4.09,4.41l-9.75,9.5-4.85-2.88Z" transform="translate(-180.24 -135.45)"/><path class="cls-5" d="M273.17,227.94c2.47-7.47,10.16-10,17-7.71,7.36,2.43,10.25,8.15,8.12,14.63a16.24,16.24,0,0,1-1,2.29L275.69,230l1-3,19,6.28-1.46.72c1.79-5.43-.32-9.12-5-10.66a8.94,8.94,0,0,0-11.77,6c-2,6,1.35,10.41,7,12.28a15.9,15.9,0,0,0,8.5.39l.74,3.07a19.83,19.83,0,0,1-10.79-.52C275.28,242.05,270.65,235.6,273.17,227.94Z" transform="translate(-180.24 -135.45)"/><path class="cls-5" d="M310.84,248.13l-.17,0-.8,2.61-3.62-.5,4.81-35.11,4.55.62-1.31,9.57-.85,4.6.16,0a13.92,13.92,0,0,1,9.44-2.43c7.18,1,10.42,6.3,9.4,13.7-1.12,8.19-7.48,12.19-13.78,11.32A14,14,0,0,1,310.84,248.13Zm17-7.53c.72-5.28-1-9.08-6.31-9.81-2.36-.32-5.25.39-8.27,2.49l-1.64,11.93a12,12,0,0,0,6.8,3.75C323,249.59,327,246.52,327.79,240.6Z" transform="translate(-180.24 -135.45)"/><path class="cls-5" d="M372.62,219.85l8.78-1.79c10.68-2.17,17.65,2.36,19.71,12.5s-2.52,17.32-13,19.45l-9,1.83Zm14.28,26.91c8.08-1.65,11.14-7.14,9.49-15.24s-6.55-11.67-14.63-10l-3.91.79L383,247.55Z" transform="translate(-180.24 -135.45)"/><path class="cls-5" d="M409.71,232.41c-3-7.27,1.19-14.18,7.84-16.94,7.16-3,13.09-.51,15.69,5.79a13.74,13.74,0,0,1,.75,2.38l-21,8.71-1.22-2.95,18.51-7.66-.64,1.5c-2.19-5.29-6.19-6.7-10.74-4.82a9,9,0,0,0-5,12.25c2.4,5.8,7.81,7,13.33,4.72a15.84,15.84,0,0,0,6.69-5.25l2.57,1.84a19.89,19.89,0,0,1-8.51,6.65C420.51,241.72,412.79,239.86,409.71,232.41Z" transform="translate(-180.24 -135.45)"/><path class="cls-5" d="M434.1,208.84l3.8-2.77,13.07,7.4q3.43,2,6.64,4l.18-.13c-.62-2.44-1.31-4.9-1.86-7.52l-3.05-14.71,3.57-2.61,5.22,26.13-4.15,3Z" transform="translate(-180.24 -135.45)"/></g></g></svg>